# xmcd
# 
# Track frame offsets:
#     182
#     12732
#     26762
#     41042
#     54347
#     69957
#     83245
#     97895
#     110445
#     124502
#     138560
#     152092
#     167097
#     181715
#     197247
#     209822
#     222985
#     237792
# 
# Disc length: 3349
# 
# Revision: 3
# Processed by: cddbd v1.5.2PL0 Copyright (c) Steve Scherf et al.
# Submitted via: fre:ac v1.0.27
# 
DISCID=fc0d1312
DTITLE=Fats Waller - Portrait of Fats Waller
DYEAR=1996
DGENRE=Blues
TTITLE0=Old Grand Dad
TTITLE1=Fat And Greasy
TTITLE2=Little Curly Hair In A High Chair
TTITLE3=(You're A) Square From Delaware
TTITLE4=You Run Your Mouth, I'll Run My Business
TTITLE5=Too Tired
TTITLE6="Send Me" Jackson
TTITLE7=Eep'Ipe, Wanna Piece Of Pie
TTITLE8=Stop Pretending
TTITLE9=I'll Never Smile Again
TTITLE10=My Mommie Sent Me To The Store
TTITLE11=Dry Bones
TTITLE12=Fats Waller's Original E Flat Blues
TTITLE13=Staying At Home
TTITLE14=Hey! Stop Kissin' My Sister
TTITLE15=Everybody Loves My Baby, But My Baby Don't Love Nobody But Me
TTITLE16=I'm Gonna Salt Away Some Sugar
TTITLE17=T'ain't Nobody's Biz-ness If I Do
EXTD=YEAR: 1996
EXTT0=
EXTT1=
EXTT2=
EXTT3=
EXTT4=
EXTT5=
EXTT6=
EXTT7=
EXTT8=
EXTT9=
EXTT10=
EXTT11=
EXTT12=
EXTT13=
EXTT14=
EXTT15=
EXTT16=
EXTT17=
PLAYORDER=
